<svg width="36" height="36" viewBox="0 0 36 36" fill="none" xmlns="http://www.w3.org/2000/svg">
<circle cx="18" cy="18" r="18" fill="#FFA674"/>
<path d="M23.6184 17.1721L15.2589 9.20714C15.1194 9.07418 14.9341 9 14.7414 9C14.5487 9 14.3634 9.07418 14.2239 9.20714L14.2149 9.21614C14.1471 9.2806 14.093 9.35819 14.0561 9.44419C14.0192 9.53019 14.0002 9.6228 14.0002 9.71639C14.0002 9.80998 14.0192 9.90259 14.0561 9.98859C14.093 10.0746 14.1471 10.1522 14.2149 10.2166L22.0869 17.7166L14.2149 25.2136C14.1471 25.2781 14.093 25.3557 14.0561 25.4417C14.0192 25.5277 14.0002 25.6203 14.0002 25.7139C14.0002 25.8075 14.0192 25.9001 14.0561 25.9861C14.093 26.0721 14.1471 26.1497 14.2149 26.2141L14.2239 26.2231C14.3634 26.3561 14.5487 26.4303 14.7414 26.4303C14.9341 26.4303 15.1194 26.3561 15.2589 26.2231L23.6184 18.2581C23.6919 18.1881 23.7505 18.1039 23.7905 18.0105C23.8305 17.9172 23.8511 17.8167 23.8511 17.7151C23.8511 17.6136 23.8305 17.5131 23.7905 17.4198C23.7505 17.3264 23.6919 17.2422 23.6184 17.1721Z" fill="#111111"/>
</svg>
