<svg width="36" height="36" viewBox="0 0 36 36" fill="none" xmlns="http://www.w3.org/2000/svg">
<circle cx="18" cy="18" r="18" transform="rotate(-180 18 18)" fill="#FFA674"/>
<path d="M12.3816 18.8279L20.7411 26.7929C20.8806 26.9258 21.0659 27 21.2586 27C21.4513 27 21.6366 26.9258 21.7761 26.7929L21.7851 26.7839C21.8529 26.7194 21.907 26.6418 21.9439 26.5558C21.9808 26.4698 21.9998 26.3772 21.9998 26.2836C21.9998 26.19 21.9808 26.0974 21.9439 26.0114C21.907 25.9254 21.8529 25.8478 21.7851 25.7834L13.9131 18.2834L21.7851 10.7864C21.8529 10.7219 21.907 10.6443 21.9439 10.5583C21.9808 10.4723 21.9998 10.3797 21.9998 10.2861C21.9998 10.1925 21.9808 10.0999 21.9439 10.0139C21.907 9.92791 21.8529 9.85032 21.7851 9.78586L21.7761 9.77686C21.6366 9.64389 21.4513 9.56971 21.2586 9.56971C21.0659 9.56971 20.8806 9.64389 20.7411 9.77686L12.3816 17.7419C12.3081 17.8119 12.2495 17.8961 12.2095 17.9895C12.1695 18.0828 12.1489 18.1833 12.1489 18.2849C12.1489 18.3864 12.1695 18.4869 12.2095 18.5802C12.2495 18.6736 12.3081 18.7578 12.3816 18.8279Z" fill="#111111"/>
</svg>
